<svg xmlns="http://www.w3.org/2000/svg" xmlns:xlink="http://www.w3.org/1999/xlink" width="522" zoomAndPan="magnify" viewBox="0 0 391.5 410.250001" height="547" preserveAspectRatio="xMidYMid meet" version="1.2"><defs><clipPath id="e454fa950b"><path d="M 44.785156 10 L 342 10 L 342 395 L 44.785156 395 Z M 44.785156 10 "/></clipPath></defs><g id="84053615c8"><g clip-rule="nonzero" clip-path="url(#e454fa950b)"><path style=" stroke:none;fill-rule:evenodd;fill:#8c52ff;fill-opacity:1;" d="M 216.648438 224.917969 L 194.789062 203.082031 L 227.578125 184.140625 L 216.648438 224.921875 Z M 225.5625 68.75 C 224.480469 68.320312 223.367188 68.363281 222.328125 68.910156 C 221.265625 69.429688 220.5625 70.289062 220.269531 71.421875 L 216.152344 86.808594 L 245.839844 103.9375 C 245.886719 87.304688 240.117188 74.429688 225.5625 68.75 Z M 170.503906 257.121094 L 200.105469 286.722656 L 191.84375 317.542969 L 187.996094 331.867188 L 180.214844 360.878906 C 173.832031 384.710938 149.097656 398.988281 125.269531 392.609375 C 101.4375 386.226562 87.160156 361.492188 93.539062 337.664062 C 99.921875 313.808594 124.65625 299.554688 148.484375 305.933594 L 156.835938 308.175781 Z M 141.585938 331.6875 C 131.921875 329.085938 121.894531 334.878906 119.292969 344.5625 C 116.714844 354.226562 122.507812 364.253906 132.171875 366.855469 C 141.832031 369.457031 151.882812 363.664062 154.460938 353.976562 C 157.0625 344.316406 151.269531 334.269531 141.585938 331.6875 Z M 87.136719 173.730469 C 74.484375 161.101562 60.816406 144.015625 62.242188 125.007812 C 62.898438 116.09375 66.746094 108.285156 72.449219 101.519531 C 74.917969 98.597656 78.402344 96.878906 82.226562 96.71875 C 86.050781 96.5625 89.691406 97.988281 92.410156 100.679688 L 187.773438 196.066406 L 262.269531 153.046875 C 267.519531 150.035156 270.507812 144.832031 270.507812 138.765625 C 270.507812 132.703125 267.519531 127.519531 262.269531 124.488281 L 69.53125 13.191406 C 64.28125 10.183594 58.285156 10.183594 53.03125 13.191406 C 47.78125 16.226562 44.773438 21.429688 44.773438 27.496094 L 44.773438 250.0625 C 44.773438 256.101562 47.78125 261.308594 53.03125 264.339844 C 58.28125 267.375 64.28125 267.371094 69.53125 264.339844 L 138.121094 224.738281 Z M 328.53125 338.136719 C 311.082031 355.585938 282.523438 355.585938 265.078125 338.136719 L 243.828125 316.910156 L 233.347656 306.410156 L 93.902344 166.964844 C 72.109375 145.191406 64.371094 125.933594 79.757812 107.695312 C 80.507812 106.8125 81.476562 106.335938 82.632812 106.292969 C 83.808594 106.246094 84.804688 106.632812 85.640625 107.445312 L 258.964844 280.792969 L 265.074219 274.683594 C 282.523438 257.234375 311.082031 257.234375 328.53125 274.683594 C 345.976562 292.128906 345.976562 320.691406 328.53125 338.136719 Z M 309.679688 293.554688 C 302.597656 286.472656 291.007812 286.472656 283.925781 293.554688 C 276.84375 300.617188 276.84375 312.203125 283.925781 319.285156 C 291.011719 326.371094 302.597656 326.371094 309.679688 319.285156 C 316.761719 312.203125 316.761719 300.617188 309.679688 293.554688 Z M 309.679688 293.554688 "/></g></g></svg>